<?xml version="1.0" standalone="no"?>
<!DOCTYPE svg PUBLIC "-//W3C//DTD SVG 20010904//EN"
 "http://www.w3.org/TR/2001/REC-SVG-20010904/DTD/svg10.dtd">
<svg version="1.0" xmlns="http://www.w3.org/2000/svg"
 width="600.000000pt" height="600.000000pt" viewBox="0 0 600.000000 600.000000"
 preserveAspectRatio="xMidYMid meet">
<metadata>
Created by potrace 1.11, written by Peter Selinger 2001-2013
</metadata>
<g transform="translate(0.000000,600.000000) scale(0.100000,-0.100000)"
fill="#000000" stroke="none">
<path d="M3817 4167 c-14 -14 -22 -16 -30 -8 -14 14 -27 14 -27 0 0 -5 5 -7
12 -3 7 4 8 3 4 -5 -6 -9 -11 -9 -22 0 -13 11 -18 6 -15 -14 1 -5 -4 -5 -10
-1 -7 4 -19 -1 -27 -12 -13 -16 -14 -17 -9 -1 4 11 1 17 -9 17 -11 0 -14 -5
-10 -16 4 -12 2 -15 -9 -10 -12 4 -14 0 -11 -19 3 -15 1 -23 -5 -20 -5 4 -7
10 -5 14 3 4 -1 8 -9 8 -10 0 -11 -5 -4 -18 6 -12 5 -20 -1 -24 -6 -4 -8 -10
-5 -15 5 -8 -24 -25 -38 -21 -5 1 -5 -3 -2 -9 4 -6 14 -9 22 -6 8 3 11 1 8 -4
-3 -6 -13 -10 -21 -10 -8 0 -14 -4 -14 -10 0 -5 8 -7 18 -4 13 4 12 1 -5 -14
-19 -17 -20 -21 -7 -26 10 -4 13 -2 8 7 -5 9 -4 9 6 0 14 -13 4 -37 -12 -27
-7 4 -8 2 -4 -5 4 -6 12 -8 18 -5 7 5 9 0 6 -14 -4 -12 -1 -25 4 -29 6 -3 8
-1 4 5 -3 6 -3 13 2 16 4 2 9 -7 10 -22 1 -15 7 -29 12 -30 6 -2 8 -8 4 -13
-3 -5 0 -9 7 -9 7 0 9 -3 6 -6 -9 -10 12 -46 24 -39 5 4 9 1 9 -4 0 -6 -8 -11
-17 -12 -11 0 -7 -5 10 -11 23 -8 28 -15 25 -33 -4 -18 -1 -22 11 -17 12 4 11
0 -4 -18 -11 -13 -13 -20 -5 -15 8 5 24 10 37 11 18 2 20 0 10 -10 -6 -8 -16
-13 -22 -12 -5 1 0 -2 12 -8 12 -5 26 -20 32 -33 6 -12 16 -23 22 -23 7 0 2
-9 -11 -20 -13 -11 -19 -20 -14 -20 6 0 15 5 22 12 9 9 12 9 12 -1 0 -7 5 -9
12 -5 7 4 8 3 4 -5 -4 -6 -11 -9 -16 -6 -5 3 -12 0 -16 -6 -4 -8 -3 -9 4 -5 7
4 12 3 12 -2 0 -5 10 -13 23 -16 22 -6 22 -7 3 -21 -19 -15 -19 -15 2 -15 12
0 22 5 22 12 0 6 3 8 6 5 4 -4 2 -13 -5 -21 -9 -11 -8 -15 3 -19 9 -4 13 -15
11 -27 -3 -15 3 -23 20 -30 16 -6 23 -15 19 -25 -3 -8 -10 -12 -15 -9 -5 3 -6
-2 -3 -11 6 -14 7 -14 18 0 10 14 12 12 14 -10 1 -17 -2 -24 -10 -19 -7 5 -8
3 -3 -6 6 -10 11 -10 20 4 11 15 13 15 19 1 4 -10 2 -14 -5 -9 -7 4 -10 1 -7
-7 3 -8 12 -13 19 -11 8 1 5 -4 -5 -13 -23 -18 -14 -20 17 -4 21 12 21 11 5
-8 -10 -11 -18 -24 -18 -29 0 -5 5 -2 10 6 5 8 10 10 10 4 0 -6 14 -26 32 -44
30 -32 30 -34 12 -48 -18 -13 -18 -14 6 -7 22 7 23 6 11 -9 -12 -14 -12 -16 5
-11 17 5 17 5 2 -6 -15 -12 -14 -14 8 -32 13 -10 21 -24 18 -30 -5 -8 -2 -8 7
1 16 15 29 16 29 1 0 -5 -4 -7 -10 -4 -5 3 -10 -1 -10 -9 0 -10 9 -16 22 -16
21 0 21 -1 3 -13 -14 -11 -15 -16 -5 -22 9 -5 11 -4 6 3 -4 7 -2 12 3 12 6 0
11 -9 11 -21 0 -13 4 -18 13 -13 7 5 7 1 -3 -12 -8 -10 -11 -16 -6 -12 13 11
49 -29 43 -46 -4 -10 -1 -16 9 -16 8 0 12 -4 9 -10 -3 -5 0 -10 7 -10 9 0 9
-3 -2 -10 -13 -8 -13 -10 2 -10 9 0 19 6 21 13 4 9 6 9 6 0 1 -6 -4 -15 -10
-19 -8 -4 -3 -12 12 -21 16 -9 17 -12 5 -8 -16 5 -17 3 -6 -10 10 -12 10 -15
0 -15 -8 0 -10 -3 -7 -7 4 -3 16 2 27 12 11 10 20 13 20 7 0 -6 -6 -13 -12
-16 -10 -5 -10 -7 -1 -12 7 -3 9 -12 6 -21 -4 -11 -2 -14 5 -9 7 4 12 2 12 -4
0 -6 4 -9 8 -6 4 2 8 -4 8 -15 0 -19 -1 -19 -13 -3 -7 10 -13 13 -13 7 0 -16
28 -36 39 -28 7 4 8 -1 4 -11 -5 -13 -3 -15 8 -9 11 7 12 6 2 -6 -9 -11 -8
-18 3 -33 8 -11 14 -17 14 -13 0 11 45 -32 46 -44 1 -5 2 -14 3 -20 0 -5 6 -7
13 -3 7 5 8 3 3 -6 -6 -10 -11 -9 -21 5 -7 10 -11 22 -7 28 3 6 1 7 -6 3 -9
-6 -8 -14 4 -32 10 -16 12 -24 4 -24 -7 0 -10 -3 -7 -6 4 -3 15 -1 26 5 19 10
20 8 16 -15 -3 -15 -1 -23 5 -20 5 4 13 1 17 -5 4 -8 3 -9 -4 -5 -7 4 -12 3
-12 -2 0 -5 9 -12 21 -15 12 -3 18 -10 15 -16 -4 -5 2 -14 12 -20 9 -5 18 -19
19 -32 1 -12 8 -26 15 -31 8 -6 4 -7 -12 -3 -19 5 -22 4 -10 -4 8 -6 24 -11
35 -11 18 -1 18 -2 -4 -14 -20 -11 -21 -14 -7 -19 9 -4 22 -20 27 -37 10 -27
20 -35 42 -31 5 1 6 -3 2 -9 -3 -5 -1 -10 6 -10 9 0 9 -4 -1 -15 -10 -12 -8
-14 9 -10 11 2 20 1 20 -3 -3 -21 3 -32 14 -27 6 4 3 -1 -7 -9 -19 -16 -19
-16 1 -16 12 0 25 -5 29 -11 4 -8 -1 -9 -17 -5 -13 3 -18 3 -11 0 6 -3 10 -10
7 -15 -4 -5 1 -6 9 -3 12 5 16 -1 17 -22 1 -16 1 -33 0 -37 -1 -5 2 -6 7 -3
11 7 30 -6 34 -24 2 -8 9 -21 16 -28 7 -8 10 -18 7 -23 -4 -5 -1 -9 5 -9 7 0
9 -9 5 -22 -4 -16 -3 -19 3 -9 7 9 11 10 17 2 5 -9 11 -9 22 1 15 12 15 11 3
-9 -8 -12 -19 -19 -25 -15 -5 3 -4 -2 3 -10 8 -9 20 -14 28 -11 10 4 12 0 7
-13 -6 -17 -5 -17 10 -5 15 12 17 11 17 -3 0 -9 -5 -16 -11 -16 -5 0 -7 -5 -4
-11 5 -6 11 -4 19 7 9 11 15 13 20 6 4 -6 13 -9 21 -5 9 3 15 -1 15 -10 0 -14
18 -26 47 -33 7 -1 9 4 6 13 -4 10 -8 11 -13 3 -5 -8 -9 -6 -14 6 -4 10 -4 15
0 11 4 -4 14 -1 22 6 9 7 13 7 9 1 -4 -6 2 -19 12 -28 15 -13 18 -14 18 -1 0
8 -5 11 -11 8 -6 -3 -7 -2 -3 2 15 17 39 14 33 -3 -5 -15 -4 -15 8 1 15 19 31
24 20 5 -4 -7 -3 -8 5 -4 6 4 8 12 5 18 -4 7 2 8 17 3 23 -7 23 -7 4 8 -18 14
-18 16 -2 13 10 -1 23 -9 28 -17 5 -9 9 -10 9 -2 0 6 -10 19 -22 27 -26 19
-20 20 18 6 24 -10 26 -9 13 6 -12 14 -10 19 10 35 18 15 22 26 18 54 -3 19
-1 32 4 29 5 -3 7 -9 4 -14 -3 -5 -1 -11 4 -15 10 -5 8 7 -5 58 -3 12 -5 36
-5 54 1 23 -4 33 -19 38 -11 3 -20 11 -20 18 0 8 3 8 12 -1 7 -7 17 -12 23
-12 5 0 2 5 -7 11 -10 5 -15 16 -12 24 4 8 1 15 -6 15 -6 0 -8 -4 -5 -10 3 -5
1 -10 -5 -10 -7 0 -9 8 -5 20 4 11 2 20 -4 20 -6 0 -11 -5 -11 -11 0 -5 -5 -7
-11 -3 -8 4 -8 8 -1 13 6 4 10 17 9 29 -1 14 -5 18 -11 12 -6 -6 -15 -10 -21
-10 -5 0 -3 5 5 10 13 8 13 11 1 22 -11 11 -13 11 -6 -1 5 -9 4 -12 -3 -8 -5
4 -8 16 -5 27 3 11 0 20 -6 20 -6 0 -11 7 -11 16 0 9 -5 12 -12 8 -7 -5 -9 0
-6 14 4 12 1 20 -4 19 -6 -1 -13 4 -16 12 -3 9 0 11 8 6 8 -5 11 -4 6 3 -3 6
-16 9 -29 7 -20 -4 -21 -3 -4 9 23 18 21 25 -5 19 -19 -4 -20 -3 -8 6 10 7 11
11 3 11 -7 0 -13 5 -13 11 0 5 5 7 12 3 7 -4 8 -3 4 5 -4 6 -12 8 -18 5 -7 -5
-9 2 -4 22 l6 29 -14 -25 -15 -25 4 33 c2 17 -1 32 -6 32 -5 0 -9 -6 -9 -14 0
-8 -5 -18 -11 -22 -8 -4 -9 1 -4 15 4 13 1 28 -5 36 -7 8 -9 15 -4 15 5 0 2 5
-6 10 -12 8 -13 13 -3 29 9 15 10 22 1 27 -6 4 -8 3 -5 -3 4 -6 -1 -17 -10
-24 -14 -12 -15 -11 -9 7 4 14 -1 28 -14 44 -11 12 -17 26 -15 30 3 5 -7 13
-22 18 -19 7 -22 11 -10 11 10 1 15 6 12 11 -4 6 -10 8 -15 5 -14 -9 -30 19
-20 35 16 25 11 35 -6 14 -8 -10 -13 -14 -10 -9 2 6 -4 29 -14 52 -10 23 -15
45 -12 48 4 4 -2 5 -13 1 -16 -5 -21 -1 -22 16 -1 11 -8 25 -15 29 -10 7 -10
9 2 9 12 0 13 2 1 9 -11 7 -11 10 0 14 11 5 11 6 -1 6 -35 -3 -45 2 -25 11 18
8 18 9 -5 10 -23 1 -24 2 -5 11 18 8 17 9 -6 6 -30 -4 -35 17 -10 48 15 18 15
19 -1 7 -11 -9 -22 -11 -34 -4 -15 8 -15 9 0 15 11 5 15 3 10 -5 -4 -7 -3 -8
4 -4 15 9 15 11 -5 27 -14 12 -16 12 -8 0 6 -10 4 -12 -4 -7 -7 5 -10 14 -7
21 3 8 -2 19 -9 25 -8 7 -13 15 -11 19 2 3 0 15 -4 25 -6 19 -7 19 -12 -2 -4
-12 -2 -20 3 -16 5 3 6 -2 3 -11 -9 -22 -18 -10 -19 23 0 18 -5 27 -16 26 -11
-1 -14 5 -11 22 2 13 9 21 15 17 6 -3 7 -1 3 6 -4 6 -12 9 -17 5 -11 -6 -39
13 -39 27 0 5 5 9 11 9 5 0 8 -4 4 -9 -3 -5 0 -13 7 -17 7 -4 10 -4 6 1 -4 4
-3 14 4 22 6 8 7 13 2 12 -22 -7 -54 14 -54 34 0 18 -2 19 -10 7 -6 -9 -10
-10 -10 -3 0 6 5 15 10 18 6 3 10 12 10 18 0 7 -4 6 -10 -3 -10 -16 -13 -10
-13 32 0 9 -2 17 -6 16 -18 -2 -31 3 -31 13 0 5 5 7 12 3 7 -4 8 -3 4 5 -6 9
-11 9 -24 -1 -12 -10 -14 -10 -8 -1 13 23 15 53 3 50 -7 -1 -11 5 -9 14 1 9
-5 23 -15 30 -11 9 -14 10 -9 2 4 -7 2 -13 -3 -13 -6 0 -11 9 -11 20 0 11 -4
20 -10 20 -5 0 -10 -5 -10 -11 0 -5 -5 -7 -11 -3 -8 4 -7 9 2 15 8 5 10 9 5 9
-5 0 -2 8 5 17 9 10 9 14 2 10 -7 -5 -16 1 -22 12 -8 14 -8 21 2 24 9 4 9 6
-1 6 -7 1 -10 6 -6 13 4 7 3 8 -5 4 -6 -4 -9 -11 -6 -16 3 -5 0 -12 -6 -16 -8
-4 -9 -3 -5 4 4 7 2 12 -5 12 -9 0 -10 3 -2 11 7 7 4 22 -11 50 -11 21 -24 39
-29 39 -4 0 0 -12 9 -27 l16 -28 -20 24 c-11 14 -18 31 -15 38 3 7 0 13 -6 13
-6 0 -11 5 -11 11 0 5 4 7 10 4 6 -3 7 1 4 9 -3 9 -16 16 -28 16 -13 0 -23 6
-23 15 0 11 4 12 14 3 7 -6 16 -8 20 -4 3 3 1 6 -6 6 -7 0 -10 4 -7 9 4 5 -5
8 -18 7 -16 -2 -23 1 -19 9 2 7 -1 16 -7 20 -8 5 -7 11 2 23 12 14 10 14 -9 3
-27 -14 -30 -4 -5 16 14 12 14 14 1 10 -9 -3 -22 -1 -30 5 -11 8 -10 9 4 4 9
-3 17 -1 17 4 0 6 -4 10 -10 10 -5 0 -10 6 -10 14 0 8 -4 17 -9 20 -5 4 -7 -4
-5 -16 4 -21 4 -21 -5 -3 -11 25 -4 38 16 31 8 -3 11 -1 8 5 -4 5 -15 7 -26 4
-11 -4 -19 -3 -18 2 4 22 -2 43 -11 38 -5 -3 -10 1 -10 9 0 9 -5 16 -10 16 -6
0 -8 11 -6 25 4 23 -6 38 -29 41 -5 0 -16 2 -22 2 -7 1 -13 7 -13 13 0 8 6 7
18 -2 15 -12 15 -12 5 1 -6 8 -11 19 -11 23 0 5 -4 12 -8 15 -4 4 -4 2 0 -5 4
-8 -1 -11 -14 -10 -14 1 -18 6 -15 18 3 10 2 20 -3 23 -6 3 -9 -2 -8 -11 0
-10 -7 -17 -21 -18 -14 -1 -23 4 -23 12 0 8 4 12 9 8 5 -3 13 0 17 6 4 7 3 9
-4 5 -5 -3 -12 -3 -14 2 -1 4 -11 -1 -21 -11z m148 -87 c3 -5 1 -10 -4 -10 -6
0 -11 5 -11 10 0 6 2 10 4 10 3 0 8 -4 11 -10z m250 -440 c3 -6 -1 -7 -9 -4
-18 7 -21 14 -7 14 6 0 13 -4 16 -10z m97 -175 c-8 -16 -9 -16 -15 -1 -4 10
-3 15 3 11 6 -3 10 -1 10 6 0 7 3 10 6 6 3 -3 2 -13 -4 -22z m23 -25 c3 -5 1
-10 -4 -10 -6 0 -11 5 -11 10 0 6 2 10 4 10 3 0 8 -4 11 -10z m-430 -30 c-3
-5 -12 -10 -18 -10 -7 0 -6 4 3 10 19 12 23 12 15 0z m467 -45 c0 -5 -5 -10
-11 -11 -8 -2 -7 -1 0 3 8 4 7 8 -2 15 -11 8 -11 9 -1 6 8 -2 14 -8 14 -13z
m-296 -270 c9 -8 11 -15 6 -15 -5 0 -15 7 -22 15 -7 8 -9 15 -6 15 4 0 14 -7
22 -15z m458 7 c3 -5 -1 -9 -9 -9 -8 0 -12 4 -9 9 3 4 7 8 9 8 2 0 6 -4 9 -8z
m154 -297 c-3 -3 -9 2 -12 12 -6 14 -5 15 5 6 7 -7 10 -15 7 -18z m117 -175
c3 -5 1 -10 -4 -10 -6 0 -11 5 -11 10 0 6 2 10 4 10 3 0 8 -4 11 -10z m-268
-315 c0 -11 -4 -12 -14 -4 -7 6 -13 13 -13 15 0 2 6 4 13 4 8 0 14 -7 14 -15z
m17 -29 c-3 -8 2 -16 13 -19 15 -4 16 -5 1 -6 -19 -1 -32 14 -23 29 9 15 15
12 9 -4z m120 -197 c-3 -6 0 -15 7 -20 9 -6 10 -9 2 -9 -15 0 -26 17 -18 30 3
6 8 10 11 10 3 0 2 -5 -2 -11z m64 -104 c-3 -3 -9 2 -12 12 -6 14 -5 15 5 6 7
-7 10 -15 7 -18z m17 -25 c3 -5 1 -10 -4 -10 -6 0 -11 5 -11 10 0 6 2 10 4 10
3 0 8 -4 11 -10z"/>
<path d="M1074 4160 c0 -13 4 -16 10 -10 7 7 7 13 0 20 -6 6 -10 3 -10 -10z"/>
<path d="M1009 4158 c14 -19 32 -15 30 5 0 8 -2 8 -6 -1 -4 -10 -8 -10 -21 0
-15 12 -16 11 -3 -4z"/>
<path d="M1050 4158 c0 -21 -19 -27 -48 -17 -15 6 -21 5 -17 -1 3 -6 4 -10 1
-10 -2 0 -16 4 -31 10 -17 7 -24 7 -20 0 3 -6 12 -10 20 -10 8 0 16 -4 19 -9
4 -5 -2 -8 -11 -6 -23 3 -43 -13 -43 -35 0 -10 -7 -24 -17 -31 -15 -13 -15
-12 -4 9 18 35 9 36 -11 2 -12 -21 -13 -32 -6 -36 7 -5 8 -2 3 6 -5 9 -4 11 3
6 8 -5 9 -13 2 -25 -5 -10 -6 -21 -3 -25 3 -3 -5 -7 -18 -7 -18 -1 -19 -2 -6
-6 18 -5 18 -5 0 -20 -10 -8 -12 -12 -5 -8 6 3 12 1 12 -5 0 -6 4 -8 10 -5 6
3 7 -1 4 -9 -3 -9 -10 -16 -16 -16 -5 0 -6 6 -2 13 4 6 3 8 -1 4 -15 -13 -15
-39 0 -33 8 3 17 0 21 -6 5 -7 2 -8 -6 -3 -10 6 -12 4 -6 -10 5 -14 4 -15 -7
-7 -10 8 -13 6 -13 -8 0 -10 3 -17 6 -15 3 2 12 -6 20 -18 12 -20 12 -21 -3
-8 -19 15 -23 1 -5 -17 7 -7 8 -12 4 -12 -5 0 -2 -8 5 -17 8 -9 9 -14 3 -10
-14 8 -31 -12 -31 -36 0 -13 6 -16 21 -11 15 4 17 3 7 -4 -7 -5 -11 -15 -7
-21 5 -7 1 -9 -8 -5 -23 9 -20 -5 7 -28 12 -11 16 -17 10 -13 -9 4 -13 -4 -13
-30 0 -20 -3 -34 -7 -32 -5 3 -8 -6 -8 -19 0 -13 5 -22 10 -20 6 2 9 9 7 15
-1 7 2 10 8 6 6 -4 4 -15 -6 -30 -22 -34 -25 -77 -6 -99 10 -11 12 -16 5 -13
-6 4 -14 3 -18 -3 -6 -9 8 -14 28 -11 5 1 5 -3 2 -9 -4 -6 -13 -9 -19 -7 -7 3
-13 -1 -13 -9 0 -10 7 -12 21 -9 18 5 18 4 4 -4 -10 -7 -14 -19 -11 -31 3 -11
2 -28 -2 -37 -5 -10 -9 -30 -10 -46 -2 -23 1 -27 19 -22 15 5 17 4 7 -3 -7 -5
-11 -15 -7 -21 5 -7 1 -9 -8 -5 -23 9 -20 -5 7 -28 12 -11 17 -17 11 -14 -11
5 -15 -7 -28 -84 -3 -16 4 -34 17 -50 14 -15 15 -19 5 -11 -20 15 -25 2 -6
-17 7 -7 8 -12 4 -12 -5 0 -2 -8 5 -17 8 -9 9 -14 3 -10 -7 4 -18 -1 -25 -10
-8 -9 -9 -14 -3 -10 7 4 14 -2 17 -13 3 -11 1 -23 -4 -26 -16 -10 -9 -24 9
-17 14 5 14 3 -3 -10 -16 -13 -17 -17 -6 -31 7 -9 10 -16 6 -16 -4 0 -1 -8 6
-17 10 -11 10 -14 2 -9 -8 4 -13 1 -13 -9 0 -9 -3 -14 -7 -12 -5 3 -8 -6 -8
-19 0 -13 5 -22 10 -20 6 2 9 9 7 15 -1 7 2 10 8 6 6 -4 4 -15 -6 -30 -22 -34
-25 -77 -6 -99 10 -11 12 -16 5 -13 -6 4 -14 3 -18 -3 -6 -9 8 -14 28 -11 5 1
5 -3 2 -9 -4 -6 -13 -9 -19 -7 -7 3 -13 -1 -13 -9 0 -10 7 -12 21 -9 17 5 18
4 5 -4 -11 -7 -15 -19 -11 -36 2 -14 -1 -32 -8 -40 -11 -13 -10 -14 4 -9 12 5
15 2 10 -10 -3 -9 -9 -14 -13 -12 -3 2 -6 -7 -6 -20 0 -13 5 -22 10 -20 6 2 9
9 7 15 -1 7 2 10 8 6 6 -4 4 -15 -6 -30 -22 -34 -25 -77 -6 -99 10 -11 12 -16
5 -13 -6 4 -14 3 -18 -3 -6 -9 8 -14 28 -11 5 1 5 -3 2 -9 -4 -6 -13 -9 -19
-7 -7 3 -13 -1 -13 -9 0 -10 7 -12 21 -9 18 5 18 4 4 -4 -10 -7 -14 -19 -11
-31 3 -11 2 -28 -3 -37 -9 -22 -12 -63 -4 -58 3 2 12 -6 20 -18 12 -20 12 -21
-3 -9 -9 8 -18 9 -21 3 -3 -5 -1 -11 6 -13 10 -4 10 -10 1 -31 -8 -16 -9 -27
-3 -27 6 0 10 5 10 12 0 6 2 9 5 6 3 -3 1 -17 -4 -32 -9 -22 -8 -26 7 -26 16
-1 16 -1 0 -11 -10 -5 -18 -15 -18 -22 0 -7 4 -6 10 3 9 13 11 13 19 0 5 -8 7
-18 5 -22 -3 -4 1 -8 9 -8 8 0 17 -7 21 -15 5 -13 2 -13 -19 1 -14 9 -22 21
-18 28 3 6 2 7 -2 3 -11 -9 -16 -37 -7 -36 23 3 33 -3 29 -16 -4 -8 -1 -17 5
-21 7 -4 8 -3 4 4 -4 7 -3 12 3 12 5 0 13 -9 16 -20 3 -11 11 -20 18 -20 8 0
8 3 -1 12 -7 7 -12 17 -12 22 0 6 5 4 10 -4 5 -8 15 -15 21 -15 7 0 13 -8 15
-19 1 -10 8 -24 15 -30 9 -8 10 -8 6 0 -9 15 31 26 40 12 3 -7 1 -8 -5 -4 -7
4 -12 2 -12 -4 0 -7 6 -10 14 -7 7 3 19 0 26 -6 10 -9 11 -9 5 2 -6 11 -4 13
9 8 10 -4 15 -3 11 3 -3 6 -2 10 4 10 5 0 12 -6 14 -12 3 -7 6 -3 6 10 1 13 5
20 11 17 6 -4 7 -12 4 -18 -4 -7 -4 -9 1 -5 4 4 15 2 24 -4 9 -7 13 -8 9 -4
-4 5 -2 16 5 25 10 14 10 14 -4 3 -14 -10 -18 -10 -22 1 -7 18 32 15 44 -4 13
-20 11 -2 -2 23 -6 12 -7 18 -1 14 5 -3 12 0 15 8 4 9 14 13 29 9 13 -3 18 -1
12 4 -17 13 -13 42 5 35 14 -5 14 -3 3 10 -9 11 -10 18 -2 23 6 3 7 11 4 17
-4 7 -2 8 5 4 6 -4 9 -11 7 -15 -3 -4 1 -8 9 -8 9 0 11 4 6 11 -4 6 -10 23
-13 38 -4 19 -1 25 9 21 7 -3 13 0 13 6 0 6 -4 11 -10 11 -5 0 -10 8 -10 18 0
10 -6 24 -12 32 -7 8 -2 6 11 -5 l24 -20 -12 22 c-16 30 -13 42 4 19 8 -11 15
-15 15 -9 0 7 -5 15 -10 18 -6 4 -7 11 -4 17 5 8 1 9 -11 4 -16 -6 -16 -4 -4
10 15 18 21 66 7 58 -4 -3 -8 0 -8 5 0 6 6 11 13 11 7 0 5 5 -5 11 -9 5 -15
16 -12 24 4 8 11 12 18 8 6 -3 8 -3 4 2 -4 4 -2 15 5 24 11 14 10 14 -5 2 -16
-12 -18 -11 -18 3 0 9 6 16 13 16 9 0 9 2 -1 9 -11 6 -10 10 3 15 13 5 15 9 6
20 -6 7 -7 17 -3 21 4 5 1 5 -6 1 -10 -6 -10 -11 -1 -22 7 -8 7 -14 1 -14 -13
0 -22 24 -14 37 4 5 14 13 22 16 12 4 11 6 -2 6 -10 1 -18 8 -18 17 0 8 4 13
9 9 5 -3 13 0 17 6 4 7 3 9 -4 5 -6 -3 -13 -2 -16 3 -4 5 -2 12 3 16 12 7 11
46 -2 63 -7 9 -6 11 7 6 9 -3 16 -10 16 -16 0 -5 6 -6 13 -2 7 5 6 0 -3 -11
-15 -19 -14 -19 12 -2 17 11 26 12 23 5 -3 -7 0 -20 5 -28 8 -12 12 -12 18 -2
6 9 12 6 20 -13 7 -16 17 -23 24 -19 7 5 8 3 3 -6 -6 -10 -12 -8 -27 9 -10 13
-18 19 -18 14 0 -5 16 -24 35 -43 19 -19 35 -30 35 -26 0 5 6 3 14 -3 11 -10
15 -8 19 6 4 16 5 16 6 1 1 -19 -32 -41 -44 -30 -5 4 -5 2 -1 -5 5 -9 15 -8
42 3 35 15 35 15 23 -7 -9 -18 -9 -21 3 -17 8 3 22 0 32 -8 11 -7 23 -11 29
-7 6 3 7 2 4 -3 -3 -6 -3 -14 1 -20 10 -14 66 -49 74 -46 4 1 3 -9 -1 -21 -7
-18 -6 -24 4 -24 8 0 12 4 10 8 -7 10 22 5 32 -6 4 -4 2 -5 -4 -1 -8 4 -13 1
-13 -8 0 -9 9 -16 20 -16 11 0 21 -4 21 -10 1 -5 3 -14 4 -20 1 -5 3 -12 4
-15 0 -3 11 -1 22 6 12 6 19 7 15 1 -3 -5 1 -12 9 -16 9 -3 12 -12 8 -23 -6
-15 -4 -16 9 -5 10 8 19 9 22 3 4 -5 0 -13 -8 -18 -12 -7 -12 -10 2 -23 14
-13 15 -12 9 3 -3 9 -3 17 1 17 11 0 47 -60 44 -73 -3 -9 0 -9 9 1 17 16 32
15 26 -2 -8 -21 13 -34 50 -31 18 1 30 -2 28 -5 -6 -10 30 -51 38 -44 3 3 4
-6 3 -20 -3 -20 0 -24 9 -16 9 8 15 7 19 -2 5 -10 7 -10 12 0 3 6 11 12 17 12
8 0 7 -4 -1 -12 -16 -16 -15 -31 2 -25 8 3 20 -2 28 -11 11 -13 11 -15 -2 -7
-12 7 -13 6 -3 -7 7 -8 9 -19 5 -23 -4 -5 6 -1 22 9 16 10 26 14 22 8 -3 -5 1
-15 8 -21 12 -10 14 -8 10 11 -5 22 -5 22 10 -2 11 -19 15 -21 16 -8 0 9 4 19
9 22 5 4 7 -2 4 -12 -2 -10 3 -24 12 -32 14 -11 16 -11 13 0 -2 8 2 14 9 15 6
0 15 4 20 9 5 5 2 6 -6 1 -10 -6 -12 -4 -7 4 6 9 11 9 24 -1 14 -11 15 -10 8
6 -7 20 -7 20 16 0 l22 -19 -18 30 -19 30 28 -25 28 -25 -13 25 c-13 24 -12
24 5 10 17 -13 18 -13 13 0 -4 11 1 16 13 17 12 1 17 -3 13 -9 -4 -7 -2 -8 4
-4 17 10 3 35 -16 30 -9 -3 -7 0 6 6 12 5 32 15 45 20 12 6 14 8 5 6 -20 -6
-22 2 -9 23 5 7 14 11 20 7 7 -5 9 -1 5 8 -3 9 -10 13 -15 10 -5 -3 -9 -1 -9
4 0 6 7 13 16 16 8 3 13 10 10 15 -4 5 -1 12 4 14 6 3 5 4 -2 2 -7 -1 -12 -8
-10 -14 1 -7 -2 -10 -7 -7 -5 4 -9 15 -8 26 1 10 5 16 9 14 4 -3 8 0 8 5 0 6
-8 11 -17 12 -12 1 -10 4 7 9 17 5 19 8 8 9 -21 1 -23 12 -5 30 10 10 9 12 -3
9 -8 -2 -15 3 -16 10 -1 6 -3 15 -4 20 -1 4 -2 11 -1 15 1 5 -3 6 -9 2 -5 -3
-13 1 -16 9 -4 11 -12 13 -29 6 -19 -7 -23 -6 -18 5 3 8 9 13 13 10 5 -3 12 0
16 6 4 8 3 9 -4 5 -7 -4 -12 -2 -12 5 0 8 -5 7 -12 -3 -12 -16 -14 -16 -28 0
-13 14 -12 15 3 9 9 -3 17 -2 17 3 0 9 -31 15 -54 11 -5 -1 -4 4 2 11 7 10 8
18 0 28 -8 12 -9 12 -4 -2 3 -10 1 -18 -4 -18 -9 0 -14 14 -11 33 2 12 -17 8
-22 -5 -3 -7 -8 2 -12 19 -4 18 -11 30 -16 27 -5 -3 -6 -11 -2 -17 4 -7 -1 -6
-11 2 -9 8 -14 21 -11 29 4 12 3 12 -9 3 -11 -9 -15 -8 -20 4 -4 11 -2 14 6 9
7 -4 8 -3 4 4 -4 7 -16 12 -27 12 -10 0 -19 5 -19 11 0 5 -6 7 -12 3 -9 -5 -8
-2 1 10 11 13 12 19 2 29 -10 9 -11 8 -5 -7 5 -13 4 -17 -3 -13 -6 4 -14 1
-17 -5 -3 -7 -3 -2 1 12 5 22 4 23 -10 12 -13 -11 -15 -10 -11 10 2 13 2 17
-2 11 -3 -7 -10 -13 -15 -13 -6 0 -8 4 -5 8 7 11 -22 52 -36 52 -7 0 -3 -7 8
-16 18 -14 18 -15 -4 -4 -13 6 -20 16 -16 22 5 7 2 9 -9 5 -18 -7 -38 19 -30
39 2 6 -4 17 -14 25 -9 8 -14 9 -10 3 4 -7 -2 -14 -13 -17 -16 -4 -18 -2 -10
13 7 13 6 20 -6 24 -9 3 -21 3 -26 -1 -7 -4 -8 -1 -3 7 6 10 4 12 -8 7 -10 -4
-16 -2 -14 6 1 7 -7 11 -18 9 -18 -2 -18 -2 -2 8 9 6 17 16 17 23 0 8 -3 8 -9
-1 -7 -11 -9 -10 -15 3 -4 11 -13 14 -28 10 -13 -3 -18 -3 -13 2 6 4 11 15 13
23 3 12 1 13 -9 3 -7 -7 -18 -13 -23 -13 -6 1 0 10 13 20 25 22 21 26 -10 10
-22 -12 -25 -1 -6 20 6 8 2 6 -11 -4 -12 -11 -25 -16 -29 -13 -3 4 -2 7 4 7 5
0 10 7 10 15 0 9 -5 14 -11 12 -6 -2 -17 3 -24 12 -8 9 -11 11 -8 4 4 -6 1
-15 -5 -19 -7 -4 -9 -3 -5 4 3 6 -7 20 -24 32 -16 12 -30 27 -30 33 0 7 4 6
10 -3 6 -9 10 -10 10 -3 0 19 -21 27 -31 12 -6 -9 -9 -10 -9 -2 0 7 8 17 18
22 22 13 11 14 -22 2 -24 -10 -24 -9 -21 27 3 30 2 33 -5 15 -6 -15 -15 -21
-25 -17 -8 3 -15 8 -15 11 0 3 6 3 13 0 8 -3 14 1 14 8 0 8 -7 11 -16 7 -14
-5 -14 -3 -3 10 10 13 10 18 1 24 -7 4 -10 3 -6 -2 3 -5 -1 -18 -10 -29 -10
-14 -14 -15 -13 -5 5 32 -1 48 -17 55 -15 5 -16 4 -5 -6 6 -7 12 -18 12 -24 0
-5 -8 2 -18 18 -10 15 -22 24 -25 20 -4 -3 -7 2 -7 13 0 16 -2 17 -10 4 -5 -8
-10 -10 -10 -5 0 6 5 16 12 23 9 9 9 12 0 12 -7 0 -12 7 -12 16 0 13 3 14 14
5 11 -9 16 -9 22 0 4 7 3 9 -2 6 -6 -3 -16 3 -23 15 -7 11 -8 17 -2 14 5 -4
12 -2 16 3 3 5 14 8 25 6 12 -2 24 4 30 16 6 10 8 19 4 19 -4 0 1 9 11 20 10
11 22 17 26 14 5 -3 9 -1 9 5 0 6 7 8 15 5 10 -4 15 0 15 12 0 11 5 26 11 34
8 12 9 10 4 -7 -5 -18 -3 -22 9 -17 9 3 13 10 10 15 -3 5 0 9 6 9 6 0 8 5 4
13 -5 7 0 6 11 -3 17 -14 17 -14 7 6 -10 18 -8 20 19 18 16 -1 26 2 23 7 -3 5
-9 7 -14 4 -5 -3 -12 0 -16 7 -4 7 -3 10 1 5 5 -4 19 2 31 14 14 13 24 17 29
10 3 -6 12 -11 18 -11 8 0 7 3 -2 9 -9 6 -11 16 -7 27 7 18 8 18 23 -1 15 -20
15 -20 8 3 -5 16 -3 22 7 20 7 -2 16 -7 20 -13 4 -5 6 4 4 22 -4 26 -1 31 11
26 12 -5 14 -3 8 8 -8 12 -6 12 8 1 14 -12 16 -11 12 7 -2 11 1 24 7 27 6 4 8
3 5 -3 -4 -6 2 -13 13 -16 17 -4 18 -2 9 14 -5 11 -6 18 -2 17 9 -3 59 44 56
53 -1 3 11 4 26 3 18 -1 28 3 28 12 0 10 -4 11 -13 3 -8 -7 -14 -6 -20 2 -4 7
-3 9 4 5 6 -3 18 4 28 16 11 15 14 17 11 6 -4 -10 -2 -18 3 -18 6 0 10 7 10
15 0 8 5 15 11 15 5 0 7 -4 4 -10 -3 -5 -1 -10 5 -10 7 0 10 7 7 15 -8 20 13
31 25 14 8 -11 9 -10 5 3 -6 16 18 34 26 20 2 -4 2 -1 1 5 -2 7 5 17 14 22 9
6 13 11 9 11 -5 0 -20 -9 -34 -20 -14 -11 -31 -20 -37 -20 -6 0 3 9 20 19 18
11 35 24 38 30 4 5 14 7 24 4 15 -6 16 -5 2 12 -15 19 -15 19 15 1 l30 -19
-19 22 c-13 14 -15 20 -5 17 8 -3 23 1 34 10 17 13 18 16 5 24 -13 8 -13 10 1
10 9 0 20 7 23 16 3 9 15 14 28 12 17 -2 23 2 21 15 -1 14 4 17 17 14 11 -3
21 2 24 10 5 13 9 13 23 2 14 -12 14 -10 -2 14 -17 26 -17 27 0 20 13 -4 16
-3 11 5 -4 8 -2 10 7 6 8 -3 18 0 23 7 4 7 3 10 -3 6 -5 -3 -10 0 -10 8 0 10
5 11 19 4 19 -10 19 -10 22 19 3 30 17 62 27 62 5 0 2 -11 -7 -25 -15 -23 -15
-25 -1 -19 9 3 15 11 14 17 -1 7 4 11 12 9 11 -2 12 0 4 10 -7 9 -8 21 0 38
15 37 15 67 1 67 -7 0 -10 -5 -7 -11 3 -6 2 -7 -2 -3 -12 10 -15 38 -4 31 5
-3 9 0 9 5 0 6 -4 11 -10 11 -5 0 -10 8 -10 18 0 15 2 15 11 2 9 -13 10 -13 6
0 -2 8 -8 15 -13 16 -5 0 -17 4 -27 9 -17 7 -17 8 0 28 10 11 12 17 6 13 -7
-4 -22 -2 -34 5 -18 9 -19 13 -8 21 11 8 10 9 -3 4 -10 -3 -18 0 -18 6 0 6 -3
8 -7 5 -3 -4 2 -15 11 -26 14 -15 15 -21 4 -27 -7 -4 -10 -4 -6 0 11 13 -29
49 -43 40 -9 -5 -10 -2 -6 9 8 22 -8 31 -22 13 -8 -10 -9 -16 -1 -19 7 -4 7
-5 0 -3 -7 1 -11 6 -11 11 0 13 -29 29 -36 21 -4 -3 -1 -6 5 -6 7 0 12 -4 12
-8 0 -4 -9 -8 -19 -8 -11 0 -18 3 -15 7 2 4 -6 5 -18 1 -15 -4 -19 -2 -13 7 4
8 -2 7 -17 -3 -14 -9 -28 -14 -31 -11 -4 3 -5 2 -2 -2 8 -11 45 -11 38 0 -3 6
-1 7 6 3 16 -11 3 -26 -16 -19 -11 4 -14 3 -9 -5 5 -8 1 -10 -10 -5 -11 4 -15
3 -11 -4 5 -7 0 -9 -13 -6 -19 5 -29 -10 -12 -20 4 -2 2 -3 -3 -2 -15 4 -56
-31 -47 -39 3 -4 -2 -4 -12 0 -15 6 -17 4 -11 -7 7 -11 6 -12 -7 -2 -17 14
-29 8 -22 -12 3 -7 0 -16 -7 -21 -8 -4 -10 -3 -5 4 5 8 2 10 -8 6 -9 -3 -13
-11 -10 -16 4 -6 -2 -8 -17 -3 -13 3 -19 3 -14 -2 6 -4 11 -14 13 -22 3 -12 1
-12 -14 0 -16 13 -16 12 -4 -11 13 -24 12 -24 -5 -10 -17 14 -18 13 -12 -2 4
-13 2 -15 -10 -11 -12 5 -14 3 -8 -8 7 -11 5 -11 -10 1 -17 14 -18 14 -6 -8 6
-12 8 -22 4 -21 -22 4 -43 -2 -43 -12 0 -5 4 -7 10 -4 6 3 7 -1 3 -10 -5 -13
-7 -14 -14 -3 -5 7 -9 9 -9 4 0 -6 -7 -1 -15 10 -14 18 -15 18 -6 -7 10 -29
-2 -62 -12 -34 -5 10 -3 14 5 9 7 -4 8 -3 4 5 -6 9 -11 9 -22 0 -12 -9 -12
-15 -2 -27 10 -13 10 -14 1 -8 -8 4 -13 2 -13 -4 0 -6 -4 -8 -10 -5 -5 3 -10
-2 -10 -11 0 -16 -1 -16 -15 2 -15 18 -15 18 -8 0 5 -14 3 -17 -6 -11 -11 6
-11 3 -1 -16 13 -24 13 -24 -8 -6 -15 14 -22 15 -28 6 -4 -8 -3 -10 4 -5 7 4
12 1 12 -7 0 -24 -13 -28 -34 -10 -12 10 -18 14 -14 9 4 -5 2 -16 -5 -24 -9
-13 -9 -14 1 -8 7 4 12 1 12 -8 0 -19 -11 -20 -29 -3 -10 10 -12 9 -9 -3 2 -8
-2 -14 -8 -13 -6 1 -10 -9 -8 -22 2 -21 0 -23 -16 -15 -25 13 -40 12 -17 -1
14 -8 16 -14 6 -25 -9 -12 -15 -12 -27 -2 -13 11 -15 10 -9 -5 5 -14 2 -16
-18 -11 -16 4 -25 2 -25 -6 0 -6 5 -8 10 -5 6 3 10 2 10 -4 0 -5 -9 -13 -20
-16 -11 -4 -18 -11 -14 -16 3 -5 2 -9 -3 -8 -25 4 -35 -1 -24 -15 9 -11 6 -12
-14 -8 -15 2 -25 0 -25 -7 0 -7 4 -9 10 -6 6 4 7 -1 3 -11 -6 -16 -7 -16 -19
0 -11 15 -13 13 -24 -18 -6 -20 -17 -36 -23 -36 -8 0 -7 4 1 12 15 15 15 28 1
28 -5 0 -8 -4 -5 -9 3 -5 -1 -14 -9 -21 -14 -12 -19 -7 -16 13 1 5 -3 6 -9 2
-9 -6 -14 8 -11 28 1 5 -3 6 -9 2 -17 -11 -11 7 8 21 14 12 14 13 1 8 -20 -6
-31 17 -17 37 8 11 9 11 5 -2 -3 -9 1 -16 8 -16 10 0 11 5 5 17 -5 10 -6 21
-2 25 4 5 -2 5 -13 1 -11 -4 -16 -4 -12 0 4 4 1 14 -6 22 -8 11 -8 14 0 9 6
-4 13 -4 16 0 2 5 3 3 1 -3 -1 -6 4 -11 12 -11 10 0 9 7 -5 31 -17 29 -18 62
-2 52 4 -3 8 2 8 10 0 9 -6 13 -16 9 -8 -3 -12 -3 -8 1 4 4 1 14 -6 22 -8 11
-8 14 0 9 6 -4 13 -4 16 0 2 5 3 3 1 -3 -1 -6 4 -11 12 -11 10 0 9 7 -5 31
-17 29 -18 62 -2 52 4 -3 8 2 8 10 0 9 -6 13 -16 9 -11 -3 -10 0 3 10 11 8 14
15 8 15 -7 0 -12 5 -12 11 0 5 4 8 8 5 5 -3 9 1 9 9 0 8 -4 12 -9 9 -4 -3 -8
0 -8 5 0 6 5 11 12 11 6 0 3 7 -8 15 -10 8 -14 15 -9 15 6 0 3 5 -5 11 -12 9
-11 10 5 4 18 -6 18 -4 -3 18 -16 17 -18 24 -8 24 8 0 13 -3 11 -7 -2 -4 3 -7
12 -7 12 0 11 4 -7 19 -12 10 -27 15 -34 12 -6 -3 0 4 14 15 27 22 21 28 -11
11 -11 -6 -18 -7 -17 -3 5 18 -14 53 -28 53 -8 0 -12 5 -9 10 3 6 1 10 -5 10
-6 0 -8 5 -4 12 4 7 3 8 -4 4 -6 -4 -9 -13 -6 -20 3 -8 0 -17 -7 -22 -8 -4
-10 -3 -5 4 4 6 0 24 -9 39 l-16 28 6 -30 6 -30 -20 29 c-18 28 -19 28 -26 7
-7 -22 -30 -24 -30 -3 0 5 -3 14 -7 18 -5 4 -8 0 -8 -8z m-100 -58 c0 -5 -5
-10 -11 -10 -5 0 -7 5 -4 10 3 6 8 10 11 10 2 0 4 -4 4 -10z m1466 -145 c-1
-8 -6 -18 -11 -22 -4 -4 -5 -2 -1 5 4 7 2 12 -6 12 -9 0 -9 3 2 10 19 12 19
13 16 -5z m-141 -206 c-4 -5 -12 -9 -18 -8 -9 0 -8 2 1 6 6 2 9 10 6 15 -4 7
-2 8 5 4 6 -4 9 -12 6 -17z m-1391 -11 c-3 -4 -9 -8 -15 -8 -5 0 -9 4 -9 8 0
5 7 9 15 9 8 0 12 -4 9 -9z m1266 -92 c0 -3 -4 -8 -10 -11 -5 -3 -10 -1 -10 4
0 6 5 11 10 11 6 0 10 -2 10 -4z m-1266 -157 c-3 -5 -10 -7 -15 -3 -5 3 -7 10
-3 15 3 5 10 7 15 3 5 -3 7 -10 3 -15z m431 -38 c-5 -2 -14 3 -19 12 -9 14
-11 14 -24 -1 -12 -15 -12 -15 -4 3 5 11 7 26 5 33 -3 7 8 0 24 -15 15 -15 24
-30 18 -32z m-431 7 c-3 -4 -9 -8 -15 -8 -5 0 -9 4 -9 8 0 5 7 9 15 9 8 0 12
-4 9 -9z m0 -200 c-3 -4 -9 -8 -15 -8 -5 0 -9 4 -9 8 0 5 7 9 15 9 8 0 12 -4
9 -9z m0 -169 c-3 -5 -10 -7 -15 -3 -5 3 -7 10 -3 15 3 5 10 7 15 3 5 -3 7
-10 3 -15z m-4 -34 c11 -13 10 -14 -4 -9 -9 3 -16 10 -16 15 0 13 6 11 20 -6z
m523 -60 c4 -8 3 -16 -1 -19 -4 -3 -9 4 -9 15 -2 23 3 25 10 4z m-519 -306
c-3 -5 -10 -7 -15 -3 -5 3 -7 10 -3 15 3 5 10 7 15 3 5 -3 7 -10 3 -15z m0
-31 c-3 -4 -9 -8 -15 -8 -5 0 -9 4 -9 8 0 5 7 9 15 9 8 0 12 -4 9 -9z m1031
-118 c-3 -5 -12 -10 -18 -10 -7 0 -6 4 3 10 19 12 23 12 15 0z m-635 -65 c0
-5 -5 -3 -10 5 -5 8 -10 20 -10 25 0 6 5 3 10 -5 5 -8 10 -19 10 -25z m150
-56 c0 -5 5 -7 12 -3 7 4 8 3 4 -5 -6 -9 -11 -9 -22 0 -17 14 -18 19 -4 19 6
0 10 -5 10 -11z m-546 -50 c-3 -5 -10 -7 -15 -3 -5 3 -7 10 -3 15 3 5 10 7 15
3 5 -3 7 -10 3 -15z m0 -31 c-3 -4 -9 -8 -15 -8 -5 0 -9 4 -9 8 0 5 7 9 15 9
8 0 12 -4 9 -9z m393 -152 c0 -8 -6 -12 -15 -9 -11 5 -11 7 0 14 7 5 13 9 14
9 0 0 1 -6 1 -14z m-400 -23 c-4 -3 -1 -13 6 -22 11 -14 10 -14 -5 -2 -21 15
-23 31 -6 31 6 0 8 -3 5 -7z m1488 -13 c16 -18 16 -20 2 -20 -10 0 -16 6 -14
13 1 6 -4 11 -10 10 -7 -2 -13 2 -13 7 0 16 15 12 35 -10z m25 -44 c0 -3 -4
-8 -10 -11 -5 -3 -10 -1 -10 4 0 6 5 11 10 11 6 0 10 -2 10 -4z m-526 -52 c9
-24 2 -26 -12 -4 -7 11 -8 20 -3 20 5 0 12 -7 15 -16z m60 -53 c4 -5 -1 -8 -9
-7 -21 3 -31 16 -12 16 9 0 18 -4 21 -9z m187 -154 c-10 -9 -11 -8 -5 6 3 10
9 15 12 12 3 -3 0 -11 -7 -18z m-1021 -1 c0 -2 -8 -10 -17 -17 -16 -13 -17
-12 -4 4 13 16 21 21 21 13z m1121 -29 c-10 -9 -11 -8 -5 6 3 10 9 15 12 12 3
-3 0 -11 -7 -18z"/>
<path d="M3700 4160 c-12 -7 -10 -9 8 -7 12 0 22 5 22 9 0 11 -12 10 -30 -2z"/>
<path d="M2040 4101 c0 -7 -4 -10 -8 -7 -5 3 -9 -2 -9 -10 0 -13 2 -13 16 0 8
9 12 19 8 22 -4 4 -7 2 -7 -5z"/>
<path d="M1230 4079 c0 -5 5 -7 10 -4 6 3 10 8 10 11 0 2 -4 4 -10 4 -5 0 -10
-5 -10 -11z"/>
<path d="M1993 4075 c0 -8 4 -12 9 -9 5 3 6 10 3 15 -9 13 -12 11 -12 -6z"/>
<path d="M2376 4082 c-3 -5 1 -9 9 -9 8 0 12 4 9 9 -3 4 -7 8 -9 8 -2 0 -6 -4
-9 -8z"/>
<path d="M3603 4070 c1 -16 -3 -24 -11 -22 -8 1 -11 -2 -7 -8 9 -15 19 -12 33
11 8 12 9 18 3 15 -5 -3 -12 2 -15 11 -3 11 -4 8 -3 -7z"/>
<path d="M863 4005 c0 -8 4 -12 9 -9 5 3 6 10 3 15 -9 13 -12 11 -12 -6z"/>
<path d="M1280 3960 c-12 -7 -10 -9 7 -7 12 0 19 5 17 9 -6 10 -6 10 -24 -2z"/>
<path d="M1815 3920 c-3 -5 -1 -10 4 -10 6 0 11 5 11 10 0 6 -2 10 -4 10 -3 0
-8 -4 -11 -10z"/>
<path d="M4090 3846 c0 -2 6 -9 14 -15 11 -9 16 -9 22 0 4 8 3 9 -4 5 -7 -4
-12 -2 -12 3 0 6 -4 11 -10 11 -5 0 -10 -2 -10 -4z"/>
<path d="M2950 3821 c0 -4 -15 -7 -34 -6 -22 1 -32 -3 -30 -10 3 -6 -2 -12
-11 -12 -10 0 -14 6 -10 15 4 11 2 12 -7 5 -7 -5 -27 -9 -45 -8 -29 1 -30 -1
-21 -20 l11 -20 -23 20 c-13 11 -20 14 -15 6 6 -11 3 -13 -13 -9 -16 4 -19 2
-15 -10 5 -11 3 -13 -8 -7 -11 7 -11 5 1 -10 8 -10 10 -16 3 -12 -6 4 -14 3
-18 -3 -3 -5 -1 -10 6 -10 7 0 9 -3 6 -6 -4 -4 -13 -1 -22 6 -14 12 -20 7 -16
-14 3 -16 -10 -46 -21 -46 -6 0 -5 6 2 15 11 13 11 18 0 28 -10 9 -11 9 -6 -1
4 -7 2 -20 -6 -29 -10 -13 -10 -17 0 -20 6 -3 9 -9 6 -14 -3 -6 -12 -5 -22 3
-14 10 -15 10 -4 -2 6 -8 12 -18 12 -23 0 -4 -6 -5 -12 -1 -10 5 -10 4 -1 -6
6 -7 9 -19 6 -28 -5 -10 -2 -13 6 -8 7 5 10 15 6 25 -4 11 -3 13 5 5 11 -11 4
-44 -11 -44 -4 0 -13 -10 -20 -21 -9 -17 -8 -20 2 -14 9 6 10 3 5 -10 -6 -16
-4 -16 11 -4 15 13 15 12 6 -5 -6 -10 -8 -28 -5 -39 4 -15 2 -18 -9 -12 -11 6
-12 5 -2 -5 10 -11 9 -18 -5 -33 -16 -19 -16 -20 6 -8 13 7 26 10 30 7 3 -3 0
-6 -8 -6 -9 0 -10 -3 -2 -13 8 -9 6 -16 -8 -25 -12 -7 -17 -18 -13 -29 5 -12
3 -14 -7 -8 -9 6 -11 4 -5 -4 5 -9 10 -10 18 -2 14 14 27 14 27 0 0 -5 -4 -7
-10 -4 -5 3 -10 -1 -10 -10 0 -10 5 -13 13 -9 8 5 8 2 -2 -9 -12 -15 -11 -17
3 -17 10 0 14 -5 11 -10 -4 -6 -10 -8 -14 -6 -4 3 -8 -1 -8 -9 0 -8 3 -13 6
-12 3 0 16 -3 29 -7 17 -6 20 -11 12 -21 -7 -9 -6 -16 4 -24 10 -8 16 -9 21
-1 3 5 11 10 17 10 6 0 5 -7 -3 -17 -12 -15 -12 -16 3 -10 12 4 19 0 23 -14 7
-21 20 -25 30 -9 4 6 12 4 21 -5 20 -20 34 -19 34 3 0 12 3 13 8 5 4 -7 17
-14 27 -16 11 -1 26 -7 34 -11 10 -7 12 -6 6 4 -6 10 -4 12 8 7 11 -4 17 -1
17 9 0 8 4 13 10 9 5 -3 7 -13 4 -23 -4 -10 -3 -13 3 -6 10 13 43 27 61 27 28
-1 31 -4 26 -20 -3 -10 1 -7 9 6 9 15 17 20 21 12 4 -6 2 -11 -4 -11 -6 0 -8
-5 -4 -11 5 -8 8 -8 13 0 4 6 21 9 39 7 18 -2 29 1 26 6 -3 5 -13 7 -23 3 -12
-5 -13 -4 -4 6 9 9 18 8 40 -6 l28 -18 -19 29 c-19 29 -19 29 1 11 26 -23 56
-13 48 17 -5 17 -4 18 4 6 10 -14 15 -7 12 13 -1 4 8 3 20 -4 17 -9 20 -8 14
2 -6 9 -3 11 9 6 14 -6 15 -4 5 16 -12 21 -11 21 7 7 10 -8 16 -10 11 -5 -4 4
1 18 10 29 15 17 15 19 1 8 -13 -11 -18 -11 -24 0 -4 7 -4 10 1 6 12 -12 38
21 40 53 2 16 -1 26 -7 23 -5 -3 -4 3 3 14 7 12 18 18 24 14 5 -3 4 1 -2 10
-7 8 -9 19 -5 23 4 5 0 6 -9 3 -12 -5 -15 -1 -11 18 2 13 8 24 13 24 5 0 6 -8
3 -17 -5 -15 -4 -15 4 -3 6 8 8 19 4 25 -10 16 -11 34 -1 41 5 3 7 10 3 15 -3
5 -11 6 -17 2 -7 -4 -5 2 3 12 14 17 13 18 -4 11 -18 -6 -19 -5 -5 11 8 10 14
24 13 31 -1 6 -2 16 -3 22 0 5 -9 7 -18 3 -12 -4 -11 0 5 13 l23 19 -20 24
c-11 13 -23 32 -26 42 -4 11 -11 19 -16 19 -6 0 -7 5 -3 11 5 8 1 8 -14 0 -16
-8 -21 -7 -26 5 -3 8 -10 13 -14 10 -5 -3 -9 1 -9 9 0 12 4 12 19 -2 15 -13
21 -14 31 -4 9 10 8 11 -7 5 -15 -6 -18 -4 -14 8 8 18 -23 18 -47 -2 -13 -11
-16 -11 -13 0 2 7 -8 17 -22 21 -15 4 -18 7 -8 8 9 1 20 5 23 11 7 12 -23 2
-44 -14 -12 -9 -13 -7 -7 9 6 16 5 17 -5 8 -10 -10 -16 -10 -29 2 -14 13 -17
13 -17 0 0 -8 5 -11 10 -8 6 3 7 1 3 -5 -11 -18 -24 -14 -31 9 -5 16 -9 18
-15 9 -5 -8 -13 -9 -21 -4 -11 6 -12 5 -2 -7 10 -13 10 -16 -2 -16 -8 0 -15 6
-15 13 0 6 -7 15 -16 18 -14 6 -15 4 -4 -9 7 -9 9 -15 4 -14 -5 1 -11 0 -14
-1 -13 -6 -78 -5 -75 1 3 3 18 5 34 4 21 -2 28 1 24 11 -6 16 -13 18 -13 5z
m-108 -32 c2 -2 1 -3 -1 -2 -2 2 -9 -2 -16 -7 -8 -7 -12 -5 -12 4 0 12 22 16
29 5z m461 -96 c27 -42 31 -53 20 -53 -5 0 -8 3 -9 8 -1 16 -28 62 -36 62 -4
0 -8 5 -8 10 0 18 9 10 33 -27z m34 -108 c0 -8 -4 -12 -9 -9 -5 3 -6 10 -3 15
9 13 12 11 12 -6z m4 -70 c11 6 11 5 2 -5 -12 -14 -33 -6 -33 13 0 8 3 7 9 -2
5 -8 14 -10 22 -6z m-1 -119 c0 -2 -8 -10 -17 -17 -16 -13 -17 -12 -4 4 13 16
21 21 21 13z m-130 -216 c0 -5 -4 -10 -10 -10 -5 0 -10 5 -10 10 0 6 5 10 10
10 6 0 10 -4 10 -10z m-420 -10 c0 -5 -2 -10 -4 -10 -3 0 -8 5 -11 10 -3 6 -1
10 4 10 6 0 11 -4 11 -10z m47 -5 c0 -8 -4 -12 -9 -9 -5 3 -6 10 -3 15 9 13
12 11 12 -6z m88 6 c3 -5 2 -12 -3 -15 -5 -3 -9 1 -9 9 0 17 3 19 12 6z"/>
<path d="M3195 3800 c-3 -5 -1 -10 4 -10 6 0 11 5 11 10 0 6 -2 10 -4 10 -3 0
-8 -4 -11 -10z"/>
<path d="M2695 3760 c-3 -5 -1 -10 4 -10 6 0 11 5 11 10 0 6 -2 10 -4 10 -3 0
-8 -4 -11 -10z"/>
<path d="M3677 3719 c7 -7 15 -10 18 -7 3 3 -2 9 -12 12 -14 6 -15 5 -6 -5z"/>
<path d="M1278 3693 c7 -3 16 -2 19 1 4 3 -2 6 -13 5 -11 0 -14 -3 -6 -6z"/>
<path d="M2187 3676 c-3 -8 2 -20 11 -28 15 -12 16 -11 3 5 -12 16 -9 22 12
18 5 -1 6 3 2 9 -9 14 -22 12 -28 -4z"/>
<path d="M855 3649 c-4 -6 -5 -12 -2 -15 2 -3 7 2 10 11 7 17 1 20 -8 4z"/>
<path d="M1530 3649 c0 -5 5 -7 10 -4 6 3 10 8 10 11 0 2 -4 4 -10 4 -5 0 -10
-5 -10 -11z"/>
<path d="M3756 3595 c-3 -9 -2 -14 3 -10 5 3 11 -1 14 -7 2 -7 7 -11 10 -8 3
3 0 13 -8 23 -11 16 -13 16 -19 2z"/>
<path d="M3818 3493 c7 -3 16 -2 19 1 4 3 -2 6 -13 5 -11 0 -14 -3 -6 -6z"/>
<path d="M1905 3429 c-4 -6 -5 -12 -2 -15 2 -3 7 2 10 11 7 17 1 20 -8 4z"/>
<path d="M1877 3401 c-4 -17 -3 -21 5 -13 5 5 8 16 6 23 -3 8 -7 3 -11 -10z"/>
<path d="M2635 3400 c-3 -5 -1 -10 4 -10 6 0 11 5 11 10 0 6 -2 10 -4 10 -3 0
-8 -4 -11 -10z"/>
<path d="M4430 3300 c-9 -6 -10 -10 -3 -10 6 0 15 5 18 10 8 12 4 12 -15 0z"/>
<path d="M1680 3245 c-7 -9 -8 -15 -2 -15 5 0 12 7 16 15 3 8 4 15 2 15 -2 0
-9 -7 -16 -15z"/>
<path d="M4010 3180 c6 -11 13 -20 16 -20 2 0 0 9 -6 20 -6 11 -13 20 -16 20
-2 0 0 -9 6 -20z"/>
<path d="M855 3169 c-4 -6 -5 -12 -2 -15 2 -3 7 2 10 11 7 17 1 20 -8 4z"/>
<path d="M3013 3145 c0 -6 6 -12 12 -12 6 0 12 6 12 12 0 6 -6 12 -12 12 -6 0
-12 -6 -12 -12z"/>
<path d="M1512 3108 c-9 -12 -8 -14 8 -13 11 1 23 5 27 10 5 4 3 5 -4 2 -6 -4
-13 -2 -15 4 -2 7 -8 6 -16 -3z"/>
<path d="M1436 3042 c-3 -5 1 -9 9 -9 8 0 12 4 9 9 -3 4 -7 8 -9 8 -2 0 -6 -4
-9 -8z"/>
<path d="M4589 3013 c-13 -16 -12 -17 4 -4 16 13 21 21 13 21 -2 0 -10 -8 -17
-17z"/>
<path d="M846 2922 c-3 -5 1 -9 9 -9 8 0 12 4 9 9 -3 4 -7 8 -9 8 -2 0 -6 -4
-9 -8z"/>
<path d="M4150 2920 c0 -5 5 -10 10 -10 6 0 10 5 10 10 0 6 -4 10 -10 10 -5 0
-10 -4 -10 -10z"/>
<path d="M2983 2858 c-4 -7 -8 -16 -8 -20 0 -3 -4 -10 -9 -15 -5 -5 -6 -3 -2
5 4 6 2 12 -4 12 -6 0 -8 5 -4 13 6 9 5 9 -8 0 -8 -7 -19 -9 -23 -5 -5 4 -5
-2 -2 -13 7 -19 6 -19 -7 -2 -12 15 -14 16 -20 2 -3 -8 -11 -15 -18 -14 -10 0
-10 2 0 6 6 2 12 9 12 14 0 4 -7 5 -17 2 -12 -5 -14 -3 -8 8 8 12 6 12 -8 0
-18 -15 -23 -26 -7 -16 6 3 7 -1 3 -10 -3 -9 -9 -13 -12 -8 -3 4 -14 9 -25 11
-12 2 -16 -1 -10 -10 4 -7 4 -10 -1 -6 -4 4 -15 2 -23 -5 -13 -10 -14 -9 -4
10 15 27 15 45 1 20 -6 -9 -15 -14 -21 -11 -8 5 -9 1 -4 -11 6 -16 4 -16 -10
-4 -16 13 -16 12 -6 -8 9 -16 9 -24 0 -29 -7 -5 -8 -3 -3 6 5 9 2 10 -14 5
-17 -5 -20 -3 -15 12 5 14 4 15 -4 4 -6 -8 -8 -21 -4 -29 4 -11 2 -13 -9 -7
-11 7 -11 5 1 -10 14 -17 13 -18 -4 -12 -16 6 -17 5 -6 -8 11 -13 10 -14 -2
-10 -9 4 -18 -1 -22 -10 -5 -13 -1 -15 17 -10 12 3 17 3 11 -2 -6 -4 -13 -16
-17 -25 -3 -10 -14 -18 -24 -18 -15 0 -15 -2 -3 -9 8 -6 18 -7 22 -5 4 3 8 0
8 -6 0 -7 -7 -9 -17 -5 -14 5 -15 4 -6 -6 10 -10 9 -17 -5 -33 -9 -11 -11 -16
-4 -12 12 7 16 -4 13 -32 -1 -8 4 -21 11 -30 12 -15 11 -16 -5 -3 -23 18 -34
7 -13 -14 20 -20 21 -32 2 -16 -12 10 -13 8 -9 -10 5 -16 3 -20 -6 -15 -10 6
-10 4 0 -12 8 -12 19 -18 28 -14 9 3 5 -4 -9 -16 -21 -17 -23 -23 -11 -34 8
-7 11 -8 7 -1 -3 6 -2 14 3 18 10 6 7 -27 -4 -44 -3 -6 7 -22 22 -37 16 -14
22 -23 15 -20 -8 5 -11 0 -9 -16 4 -25 10 -28 24 -14 5 5 2 6 -6 1 -10 -5 -12
-4 -7 4 4 6 12 9 17 5 5 -3 7 -9 4 -14 -3 -4 2 -13 10 -20 8 -7 15 -9 15 -4 0
5 7 0 15 -10 16 -21 61 -35 49 -14 -4 7 -3 8 5 4 6 -4 9 -11 6 -16 -3 -4 7
-15 21 -25 25 -16 25 -16 14 4 -7 14 -7 21 0 21 5 0 10 -5 10 -10 0 -6 11 -8
24 -6 18 3 23 1 20 -9 -6 -14 19 -15 32 -2 11 11 26 8 19 -3 -3 -6 1 -7 9 -4
9 3 13 10 10 15 -3 5 2 6 10 3 9 -3 13 -11 9 -18 -4 -6 1 -5 11 3 13 11 14 16
4 23 -10 7 -10 9 2 5 8 -2 14 -11 12 -19 -1 -8 4 -15 12 -15 8 0 12 5 10 12
-3 6 6 11 20 11 17 0 22 -4 18 -15 -4 -13 -2 -14 9 -3 15 14 33 17 25 4 -3 -5
1 -9 8 -9 9 0 12 7 8 16 -4 12 0 11 17 -4 12 -11 21 -15 19 -10 -2 6 2 10 7
10 6 0 9 -4 7 -8 -1 -4 9 0 23 9 29 19 34 29 6 15 -14 -8 -20 -7 -25 5 -3 9
-2 12 4 9 13 -8 52 4 46 14 -3 4 4 7 15 7 19 0 19 -1 3 -13 -10 -7 -13 -13 -8
-13 16 0 34 22 34 41 0 10 5 21 12 25 7 4 8 3 4 -4 -4 -7 -2 -12 4 -12 7 0 9
11 7 28 -3 20 0 29 9 29 10 0 11 -4 3 -13 -7 -8 -7 -14 1 -19 12 -7 11 -8 14
27 2 15 -1 25 -5 22 -4 -2 -11 1 -15 7 -4 7 -3 9 2 6 17 -10 38 11 40 37 0 14
-3 26 -8 26 -4 0 -8 5 -8 11 0 5 5 7 12 3 7 -4 8 -3 4 5 -4 6 -2 19 5 27 10
12 9 13 -4 9 -8 -4 -18 -1 -23 6 -4 8 -3 10 4 5 7 -4 12 -2 12 4 0 6 5 8 12 4
7 -4 8 -3 4 5 -4 6 -13 8 -19 4 -7 -4 -6 0 2 10 7 9 10 17 6 17 -4 0 -2 6 4
14 9 11 9 16 0 22 -8 5 -9 3 -4 -6 5 -9 4 -11 -4 -6 -9 6 -9 11 0 22 8 9 8 14
1 14 -6 0 -16 -8 -21 -17 -6 -10 -10 -13 -10 -8 0 16 25 45 32 38 4 -3 7 -2 7
4 0 5 -10 15 -22 22 -21 11 -21 11 7 6 l30 -6 -25 18 c-14 10 -29 16 -35 15
-5 -2 -1 6 9 17 12 13 14 21 7 21 -7 0 -10 4 -7 9 3 5 -1 11 -9 15 -8 3 -15
11 -15 18 0 9 3 9 11 -2 9 -13 10 -12 5 2 -3 10 2 22 12 28 16 11 16 11 0 6
-9 -3 -19 -2 -21 2 -2 4 -2 1 -1 -5 7 -26 -12 -11 -34 27 -14 24 -27 37 -36
34 -7 -3 -22 3 -32 13 -15 16 -17 16 -12 1 4 -10 1 -19 -9 -22 -9 -4 -17 1
-20 13 -5 21 -34 21 -58 1 -9 -7 -16 -6 -25 5 -12 14 -15 14 -32 -2 -15 -13
-18 -14 -13 -2 4 10 0 16 -9 16 -8 0 -13 -4 -10 -9 6 -10 -10 -11 -19 -1 -4 3
-2 12 4 20 6 7 9 13 6 13 -3 0 -9 -6 -14 -12z m153 -30 c4 -7 4 -10 -1 -6 -4
4 -15 2 -24 -5 -14 -11 -14 -10 -2 6 16 20 18 21 27 5z m78 -16 c3 -5 -1 -9
-9 -9 -8 0 -12 4 -9 9 3 4 7 8 9 8 2 0 6 -4 9 -8z m36 -17 c14 -19 14 -19 -2
-6 -10 7 -18 18 -18 24 0 6 1 8 3 6 1 -2 9 -13 17 -24z m17 -40 c0 -8 -4 -12
-9 -9 -5 3 -6 10 -3 15 9 13 12 11 12 -6z m70 -230 c0 -8 -4 -12 -9 -9 -5 3
-6 10 -3 15 9 13 12 11 12 -6z m-677 -65 c0 -5 -5 -10 -11 -10 -5 0 -7 5 -4
10 3 6 8 10 11 10 2 0 4 -4 4 -10z m676 -84 c1 -7 -4 -13 -12 -13 -9 0 -11 4
-4 12 5 7 8 15 5 18 -3 4 -2 5 2 2 4 -3 8 -11 9 -19z m-669 -13 c-4 -3 1 -12
11 -20 15 -13 15 -13 -6 -3 -19 9 -23 30 -5 30 4 0 3 -3 0 -7z"/>
<path d="M1570 2850 c-9 -6 -10 -10 -3 -10 6 0 15 5 18 10 8 12 4 12 -15 0z"/>
<path d="M3077 2842 c3 -7 9 -10 12 -5 3 4 10 11 15 15 4 4 -1 6 -12 5 -12 -1
-18 -6 -15 -15z"/>
<path d="M2815 2840 c3 -5 8 -10 11 -10 2 0 4 5 4 10 0 6 -5 10 -11 10 -5 0
-7 -4 -4 -10z"/>
<path d="M1631 2799 c0 -9 5 -22 12 -28 10 -8 14 -7 14 4 0 8 -4 12 -8 9 -4
-2 -10 4 -12 13 -4 15 -5 15 -6 2z"/>
<path d="M1670 2776 c0 -2 8 -10 18 -17 15 -13 16 -12 3 4 -13 16 -21 21 -21
13z"/>
<path d="M4735 2740 c3 -5 8 -10 11 -10 2 0 4 5 4 10 0 6 -5 10 -11 10 -5 0
-7 -4 -4 -10z"/>
<path d="M3326 2717 c3 -10 9 -15 12 -12 3 3 0 11 -7 18 -10 9 -11 8 -5 -6z"/>
<path d="M2645 2680 c3 -5 8 -10 11 -10 2 0 4 5 4 10 0 6 -5 10 -11 10 -5 0
-7 -4 -4 -10z"/>
<path d="M3325 2660 c4 -6 11 -8 16 -5 14 9 11 15 -7 15 -8 0 -12 -5 -9 -10z"/>
<path d="M4338 2598 c5 -5 16 -8 23 -6 8 3 3 7 -10 11 -17 4 -21 3 -13 -5z"/>
<path d="M4861 2554 c0 -11 3 -14 6 -6 3 7 2 16 -1 19 -3 4 -6 -2 -5 -13z"/>
<path d="M1936 2532 c-2 -4 -1 -14 4 -22 7 -11 9 -9 7 8 -1 24 -3 26 -11 14z"/>
<path d="M4444 2426 c11 -9 24 -16 30 -16 12 0 7 5 -24 19 -24 11 -24 11 -6
-3z"/>
<path d="M2105 2399 c-4 -6 -5 -12 -2 -15 2 -3 7 2 10 11 7 17 1 20 -8 4z"/>
<path d="M1510 2319 c0 -5 5 -7 10 -4 6 3 10 8 10 11 0 2 -4 4 -10 4 -5 0 -10
-5 -10 -11z"/>
<path d="M1535 2309 c-5 -8 -5 -11 -1 -8 8 8 54 -32 49 -42 -1 -4 5 -6 15 -5
9 0 16 -5 15 -11 -2 -7 2 -13 7 -13 19 0 10 20 -17 37 -16 9 -35 25 -44 36
-13 16 -18 17 -24 6z"/>
<path d="M2700 2240 c0 -5 5 -10 11 -10 5 0 7 5 4 10 -3 6 -8 10 -11 10 -2 0
-4 -4 -4 -10z"/>
<path d="M2730 2233 c0 -6 9 -21 21 -34 l20 -24 -17 30 c-24 39 -24 40 -24 28z"/>
<path d="M1747 2129 c7 -7 15 -10 18 -7 3 3 -2 9 -12 12 -14 6 -15 5 -6 -5z"/>
<path d="M5124 2046 c1 -8 5 -18 8 -22 4 -3 5 1 4 10 -1 8 -5 18 -8 22 -4 3
-5 -1 -4 -10z"/>
<path d="M1943 1965 c0 -8 4 -12 9 -9 5 3 6 10 3 15 -9 13 -12 11 -12 -6z"/>
<path d="M1954 1939 c-4 -7 -3 -9 4 -5 6 3 13 -2 15 -11 4 -16 5 -16 6 -1 1
21 -15 32 -25 17z"/>
<path d="M5085 1920 c-3 -5 -1 -10 4 -10 6 0 11 5 11 10 0 6 -2 10 -4 10 -3 0
-8 -4 -11 -10z"/>
<path d="M1207 1876 c-4 -10 -1 -13 8 -9 8 3 12 9 9 14 -7 12 -11 11 -17 -5z"/>
<path d="M4827 1849 c7 -9 10 -19 6 -23 -4 -4 0 -4 10 0 9 3 17 11 17 17 0 6
-3 7 -7 4 -3 -4 -13 -1 -22 6 -14 10 -14 10 -4 -4z"/>
</g>
</svg>
